<svg width="24" xmlns="http://www.w3.org/2000/svg" height="24" id="screenshot-0bcd9f3d-cf8b-80e5-8007-cb0ae3acd71a" viewBox="0 0 24 24" xmlns:xlink="http://www.w3.org/1999/xlink" fill="none" version="1.1"><g id="shape-0bcd9f3d-cf8b-80e5-8007-cb0ae3acd71a" width="24" height="24" rx="0" ry="0" style="fill: rgb(0, 0, 0);"><g id="shape-0bcd9f3d-cf8b-80e5-8007-cb0ae3b0bbca" style="display: none;"><g class="fills" id="fills-0bcd9f3d-cf8b-80e5-8007-cb0ae3b0bbca"><rect width="24" height="24" x="0" transform="matrix(1.000000, 0.000000, 0.000000, 1.000000, 0.000000, 0.000000)" style="fill: none;" ry="0" fill="none" rx="0" y="0"/></g></g><g id="shape-0bcd9f3d-cf8b-80e5-8007-cb0ae3b1e691"><g class="fills" id="fills-0bcd9f3d-cf8b-80e5-8007-cb0ae3b1e691"><path d="M7,6L7,19ZM11.25,21L7,21C6.4501953125,21,5.9794921875,20.8043212890625,5.587890625,20.41302490234375C5.19677734375,20.02166748046875,5.00048828125,19.5506591796875,5,19L5,6L4,6L4,4L9,4L9,3L15,3L15,4L20,4L20,6L19,6L19,10.29998779296875C18.716796875,10.2166748046875,18.3876953125,10.14569091796875,18.01318359375,10.08697509765625C17.63818359375,10.0283203125,17.30078125,9.99932861328125,17,10L17,6L7,6L7,19L10.2998046875,19C10.39990234375,19.3499755859375,10.533203125,19.69598388671875,10.7001953125,20.03802490234375C10.86669921875,20.3800048828125,11.0498046875,20.70068359375,11.25,21M9,17L10,17C10,15.95001220703125,10.16650390625,15.08734130859375,10.5,14.4119873046875L11,13.4000244140625L11,8L9,8ZM13,11.25C13.283203125,11.066650390625,13.6044921875,10.88336181640625,13.962890625,10.70001220703125C14.32177734375,10.51666259765625,14.66748046875,10.38336181640625,15,10.29998779296875L15,8L13,8ZM13.462890625,20.53802490234375C12.48779296875,19.56268310546875,12,18.38336181640625,12,17C12,15.61663818359375,12.48779296875,14.43768310546875,13.462890625,13.4630126953125C14.4384765625,12.48834228515625,15.6171875,12.00067138671875,17,12C18.3828125,11.99932861328125,19.56201171875,12.48699951171875,20.5380859375,13.4630126953125C21.51416015625,14.43902587890625,22.00146484375,15.61798095703125,22,17C21.99853515625,18.38201904296875,21.51123046875,19.56134033203125,20.537109375,20.53802490234375C19.56298828125,21.5146484375,18.3837890625,22.00201416015625,17,22C15.6162109375,21.99798583984375,14.43701171875,21.51031494140625,13.462890625,20.5369873046875M18.64990234375,19.3499755859375L19.35009765625,18.6500244140625L17.5,16.79998779296875L17.5,14L16.5,14L16.5,17.20001220703125Z"/></g></g></g></svg>