<svg width="78" xmlns="http://www.w3.org/2000/svg" height="78" id="screenshot-73fc190e-eaef-8025-8007-c456b9148564" viewBox="0 0 78 78" xmlns:xlink="http://www.w3.org/1999/xlink" fill="none" version="1.1"><g id="shape-73fc190e-eaef-8025-8007-c456b9148564" width="16" height="16" rx="0" ry="0" style="fill: rgb(0, 0, 0);"><g id="shape-73fc190e-eaef-8025-8007-c456b914c744" style="display: none;"><g class="fills" id="fills-73fc190e-eaef-8025-8007-c456b914c744"><rect width="78" height="78" x="0" transform="matrix(1.000000, 0.000000, 0.000000, 1.000000, 0.000000, 0.000000)" style="fill: none;" ry="0" fill="none" rx="0" y="0"/></g></g><g id="shape-73fc190e-eaef-8025-8007-c456b914c745"><g class="fills" id="fills-73fc190e-eaef-8025-8007-c456b914c745"><path d="M66.1171875,55.7578125L60.76171875,55.7578125C60.396484375,55.7578125,60.0546875,55.9178466796875,59.826171875,56.19970703125C59.29296875,56.84716796875,58.720703125,57.4716796875,58.119140625,58.06591796875C55.658203125,60.529541015625,52.7421875,62.492919921875,49.53515625,63.8472900390625C46.2099609375,65.251220703125,42.6396484375,65.9713134765625,39.03125,65.96484375C35.3818359375,65.96484375,31.84765625,65.2489013671875,28.5263671875,63.8472900390625C25.3173828125,62.492919921875,22.404296875,60.529541015625,19.9423828125,58.06591796875C17.4765625,55.610595703125,15.5107421875,52.700439453125,14.1533203125,49.49658203125C12.744140625,46.1754150390625,12.03515625,42.648681640625,12.03515625,39C12.03515625,35.3514404296875,12.751953125,31.82470703125,14.1533203125,28.5035400390625C15.5078125,25.2967529296875,17.4580078125,22.4097900390625,19.9423828125,19.9342041015625C22.42578125,17.4586181640625,25.3125,15.5086669921875,28.5263671875,14.15283203125C31.84765625,12.751220703125,35.3818359375,12.03515625,39.03125,12.03515625C42.6796875,12.03515625,46.212890625,12.74365234375,49.53515625,14.15283203125C52.7490234375,15.5086669921875,55.63671875,17.4586181640625,58.119140625,19.9342041015625C58.720703125,20.5360107421875,59.28515625,21.16064453125,59.826171875,21.8004150390625C60.0546875,22.082275390625,60.404296875,22.2421875,60.76171875,22.2421875L66.1171875,22.2421875C66.59765625,22.2421875,66.8935546875,21.708984375,66.626953125,21.3052978515625C60.78515625,12.2255859375,50.5634765625,6.2156982421875,38.947265625,6.24609375C20.6953125,6.2918701171875,6.0625,21.1072998046875,6.24609375,39.335205078125C6.4296875,57.273681640625,21.0380859375,71.75390625,39.03125,71.75390625C50.6162109375,71.75390625,60.79296875,65.7515869140625,66.626953125,56.69482421875C66.88671875,56.291015625,66.59765625,55.7578125,66.1171875,55.7578125M72.888671875,38.5201416015625L62.080078125,29.9888916015625C61.67578125,29.6689453125,61.08984375,29.95849609375,61.08984375,30.46875L61.08984375,36.2578125L37.171875,36.2578125C36.8359375,36.2578125,36.5625,36.5321044921875,36.5625,36.8671875L36.5625,41.1328125C36.5625,41.468017578125,36.8359375,41.7421875,37.171875,41.7421875L61.08984375,41.7421875L61.08984375,47.53125C61.08984375,48.0416259765625,61.6845703125,48.3310546875,62.080078125,48.01123046875L72.888671875,39.47998046875C73.037109375,39.3643798828125,73.123046875,39.1875,73.123046875,39C73.123046875,38.8126220703125,73.037109375,38.6357421875,72.888671875,38.5201416015625"/></g></g></g></svg>