<svg width="78" xmlns="http://www.w3.org/2000/svg" height="78" id="screenshot-73fc190e-eaef-8025-8007-c456b9148563" viewBox="0 0 78 78" xmlns:xlink="http://www.w3.org/1999/xlink" fill="none" version="1.1"><g id="shape-73fc190e-eaef-8025-8007-c456b9148563" width="16" height="16" rx="0" ry="0" style="fill: rgb(0, 0, 0);"><g id="shape-73fc190e-eaef-8025-8007-c456b914c742" style="display: none;"><g class="fills" id="fills-73fc190e-eaef-8025-8007-c456b914c742"><rect width="78" height="78" x="0" transform="matrix(1.000000, 0.000000, 0.000000, 1.000000, 0.000000, 0.000000)" style="fill: none;" ry="0" fill="none" rx="0" y="0"/></g></g><g id="shape-73fc190e-eaef-8025-8007-c456b914c743"><g class="fills" id="fills-73fc190e-eaef-8025-8007-c456b914c743"><path d="M50.69921875,6.5001220703125L50.69921875,14.35205078125C52.0234375,14.978271484375,53.2939453125,15.7108154296875,54.5009765625,16.5426025390625L55.6650390625,15.86669921875L61.296875,12.619873046875L64.5458984375,18.24560546875L69.7451171875,27.254638671875L72.994140625,32.8836669921875L67.3671875,36.1334228515625L66.205078125,36.7999267578125C66.26953125,37.53759765625,66.302734375,38.268798828125,66.302734375,39C66.302734375,39.731201171875,66.26953125,40.4625244140625,66.205078125,41.200439453125L67.3671875,41.8665771484375L72.994140625,45.11669921875L69.7451171875,50.7457275390625L64.5458984375,59.7545166015625L61.296875,65.38037109375L55.6650390625,62.1336669921875L54.5009765625,61.4576416015625C53.2939453125,62.289306640625,52.0234375,63.0218505859375,50.69921875,63.6480712890625L50.69921875,71.5001220703125L27.302734375,71.5001220703125L27.302734375,63.6480712890625C25.9765625,63.0218505859375,24.7060546875,62.289306640625,23.4990234375,61.4576416015625L22.33203125,62.1336669921875L16.703125,65.38037109375L13.4541015625,59.7545166015625L8.2529296875,50.7457275390625L5.00390625,45.1163330078125L10.6328125,41.8665771484375L11.79296875,41.200439453125C11.73046875,40.4683837890625,11.69921875,39.734375,11.69921875,39C11.69921875,38.268798828125,11.73046875,37.53759765625,11.79296875,36.7999267578125L10.6328125,36.1334228515625L5.00390625,32.8836669921875L8.2529296875,27.25439453125L13.4541015625,18.24560546875L16.703125,12.619873046875L22.33203125,15.86669921875L23.4990234375,16.5426025390625C24.7060546875,15.7108154296875,25.9765625,14.978271484375,27.302734375,14.35205078125L27.302734375,6.5001220703125ZM44.19921875,13.0001220703125L33.80078125,13.0001220703125L33.80078125,18.8826904296875C30.087890625,19.8380126953125,26.771484375,21.7783203125,24.166015625,24.4334716796875L19.083984375,21.4957275390625L13.8828125,30.5047607421875L18.9716796875,33.4427490234375C18.486328125,35.2139892578125,18.1982421875,37.0731201171875,18.1982421875,39.000244140625C18.1982421875,40.927490234375,18.486328125,42.78662109375,18.9716796875,44.5576171875L13.8828125,47.495849609375L19.083984375,56.504638671875L24.166015625,53.566650390625C26.771484375,56.2220458984375,30.087890625,58.162353515625,33.80078125,59.11767578125L33.80078125,65.000244140625L44.19921875,65.000244140625L44.19921875,59.11767578125C47.9140625,58.162353515625,51.228515625,56.2220458984375,53.833984375,53.566650390625L58.9140625,56.504638671875L64.1171875,47.495849609375L59.0283203125,44.5576171875C59.5166015625,42.78662109375,59.8017578125,40.927490234375,59.8017578125,39.000244140625C59.8017578125,37.0728759765625,59.5166015625,35.2139892578125,59.0283203125,33.4427490234375L64.1171875,30.5047607421875L58.9140625,21.4957275390625L53.833984375,24.4337158203125C51.228515625,21.7784423828125,47.9140625,19.83837890625,44.19921875,18.8828125ZM39,26.0001220703125C46.1796875,26.0001220703125,51.9990234375,31.8199462890625,51.9990234375,39C51.9990234375,46.18017578125,46.1796875,52.0001220703125,39,52.0001220703125C31.8203125,52.0001220703125,26.0009765625,46.1802978515625,26.0009765625,39C26.0009765625,31.8199462890625,31.8203125,26.0001220703125,39,26.0001220703125M39,32.5001220703125C35.41015625,32.5001220703125,32.4990234375,35.4097900390625,32.4990234375,39C32.4990234375,42.590576171875,35.41015625,45.5001220703125,39,45.5001220703125C42.58984375,45.5001220703125,45.5009765625,42.5902099609375,45.5009765625,39C45.5009765625,35.4097900390625,42.58984375,32.5001220703125,39,32.5001220703125" fill-rule="evenodd"/></g></g></g></svg>